# xmcd
#
# Track frame offsets:
#	150
#	16131
#	32592
#	47809
#	65570
#	80911
#	95524
#	110305
#	124994
#	140127
#	153892
#	166085
#	181406
#	192695
#	204924
#	220965
#	232638
#	244395
#	256480
#	268685
#	280678
#
# Disc length: 3939 seconds
#
# Revision: 1
# Processed by: cddbd v1.5.2PL0 Copyright (c) Steve Scherf et al.
# Submitted via: audiograbber 1.83.01
#
DISCID=2f0f6115
DTITLE=Dave Reynolds - We'll Meet Again
DYEAR=1900
DGENRE=Country
TTITLE0=Living On Love
TTITLE1=Me and Bobby McGee
TTITLE2=Bye Bye Love
TTITLE3=Sunday Morning Coming Down
TTITLE4=Are You Lonesome Tonight
TTITLE5=Walk A Country Mile
TTITLE6=Storms Of Life
TTITLE7=If Tomorrow Never Comes
TTITLE8=The Gambler
TTITLE9=Looking Forward, Looking Back
TTITLE10=Big River
TTITLE11=Help Me Make It Through The Night
TTITLE12=Until I Kissed Ya
TTITLE13=My Shoes keep Walking back To You
TTITLE14=Suspicious Minds
TTITLE15=I Walk The Line Revisited 
TTITLE16=Hello Mary Lou, Goodbye Heart
TTITLE17=That Old Time Feeling
TTITLE18=A Fool Such As I 
TTITLE19=Where Did We Go Right
TTITLE20=We'll Meet Again
EXTD=
EXTT0=
EXTT1=
EXTT2=
EXTT3=
EXTT4=
EXTT5=
EXTT6=
EXTT7=
EXTT8=
EXTT9=
EXTT10=
EXTT11=
EXTT12=
EXTT13=
EXTT14=
EXTT15=
EXTT16=
EXTT17=
EXTT18=
EXTT19=
EXTT20=
PLAYORDER=
